<?xml version="1.0" encoding="UTF-8"?>
<svg width="94px" height="92px" viewBox="0 0 94 92" version="1.1" xmlns="http://www.w3.org/2000/svg" xmlns:xlink="http://www.w3.org/1999/xlink">
    <!-- Generator: Sketch 61.1 (89650) - https://sketch.com -->
    <title>Group 11</title>
    <desc>Created with Sketch.</desc>
    <g id="Logo" stroke="none" stroke-width="1" fill="none" fill-rule="evenodd">
        <g id="Group-11" transform="translate(2.000000, 2.000000)" fill="#3A53FF" stroke="#3A53FF" stroke-width="3.52738294">
            <path d="M56.3108287,54.3108287 L88.6891713,86.6891713 C88.9890415,86.9890415 88.9890415,87.4752272 88.6891713,87.7750974 C88.5451686,87.9191001 88.3498589,88 88.1462083,88 L55.7678657,88 C55.3437852,88 55,87.6562148 55,87.2321343 L55,54.8537917 C55,54.4297112 55.3437852,54.0859261 55.7678657,54.0859261 C55.9715163,54.0859261 56.166826,54.166826 56.3108287,54.3108287 Z" id="Triangle" transform="translate(72.500000, 70.500000) scale(-1, 1) translate(-72.500000, -70.500000) "></path>
            <path d="M1.3108287,54.3108287 L33.6891713,86.6891713 C33.9890415,86.9890415 33.9890415,87.4752272 33.6891713,87.7750974 C33.5451686,87.9191001 33.3498589,88 33.1462083,88 L0.767865675,88 C0.343785173,88 5.19348829e-17,87.6562148 0,87.2321343 L0,54.8537917 C-1.38420251e-15,54.4297112 0.343785173,54.0859261 0.767865675,54.0859261 C0.971516314,54.0859261 1.16682595,54.166826 1.3108287,54.3108287 Z" id="Triangle"></path>
            <path d="M56.3108287,1.3108287 L88.6891713,33.6891713 C88.9890415,33.9890415 88.9890415,34.4752272 88.6891713,34.7750974 C88.5451686,34.9191001 88.3498589,35 88.1462083,35 L55.7678657,35 C55.3437852,35 55,34.6562148 55,34.2321343 L55,1.85379173 C55,1.42971122 55.3437852,1.08592605 55.7678657,1.08592605 C55.9715163,1.08592605 56.166826,1.16682595 56.3108287,1.3108287 Z" id="Triangle" transform="translate(72.500000, 17.500000) scale(-1, -1) translate(-72.500000, -17.500000) "></path>
            <path d="M1.3108287,1.3108287 L33.6891713,33.6891713 C33.9890415,33.9890415 33.9890415,34.4752272 33.6891713,34.7750974 C33.5451686,34.9191001 33.3498589,35 33.1462083,35 L0.767865675,35 C0.343785173,35 5.19348829e-17,34.6562148 0,34.2321343 L0,1.85379173 C-1.38420251e-15,1.42971122 0.343785173,1.08592605 0.767865675,1.08592605 C0.971516314,1.08592605 1.16682595,1.16682595 1.3108287,1.3108287 Z" id="Triangle" transform="translate(17.500000, 17.500000) scale(1, -1) translate(-17.500000, -17.500000) "></path>
        </g>
    </g>
</svg>